<svg width="1024" height="1024" viewBox="0 0 1024 1024" fill="none" xmlns="http://www.w3.org/2000/svg">
<path d="M252.347 369.588C252.347 385.5 255.494 400.762 263.217 415.699C280.38 404.333 300.403 398.489 320.425 398.489C351.319 398.489 381.925 412.127 401.948 440.703C422.829 407.256 458.585 389.396 494.626 389.396C530.668 389.396 566.423 407.256 587.018 440.703C607.328 412.127 637.934 398.489 669.113 398.489C688.85 398.489 708.587 404.333 725.464 415.699C734.904 399.787 740.05 381.278 740.05 360.821C740.05 303.669 708.301 263.403 661.962 261.454C649.09 229.307 626.207 208.524 595.027 208.524C575.291 208.524 556.698 216.318 542.682 230.93C536.102 228.657 526.949 228.008 519.512 229.631C506.354 197.808 478.608 178 447.715 178C406.811 178 378.779 205.926 373.058 235.476C351.891 234.177 333.869 255.934 333.298 277.691C288.961 276.717 252.347 318.281 252.347 369.588Z" fill="url(#paint0_linear_21_148)"/>
<path d="M312.387 762.814C321.907 804.712 346.726 829.511 397.045 829.511H441.243L399.424 443.3C395.004 402.826 357.946 383.16 321.227 383.16C277.028 383.16 232.83 411.377 245.069 465.247L312.387 762.814Z" fill="url(#paint1_linear_21_148)"/>
<path d="M452.434 829.865L411.405 446.956C405.98 395.845 456.164 375 494.48 375C532.457 375 582.642 395.845 577.216 446.956L539 828.724L452.434 829.865Z" fill="white"/>
<path d="M676.856 762.655C667.336 804.552 642.517 829.351 592.199 829.351H548L589.819 443.141C594.239 402.667 631.298 383 668.016 383C712.215 383 756.414 411.218 744.174 465.088L676.856 762.655Z" fill="url(#paint2_linear_21_148)"/>
<path d="M763.165 246.752C773.845 267.744 796.986 282 821.907 282C846.827 282 869.714 267.744 880.14 246.234C913.454 238.458 931 210.986 931 182.479C931 154.489 913.454 127.273 881.92 120.537C880.394 86.8453 855.219 63 821.907 63C789.357 63 764.182 86.3234 761.639 118.98C728.326 124.942 709 152.932 709 182.479C709 212.543 728.581 240.015 763.165 246.752Z" fill="url(#paint3_linear_21_148)"/>
<path d="M675.718 631.398C681.972 643.668 695.523 652 710.116 652C724.71 652 738.112 643.668 744.217 631.096C763.725 626.551 774 610.494 774 593.832C774 577.473 763.725 561.566 745.26 557.629C744.366 537.937 729.624 524 710.116 524C691.056 524 676.314 537.632 674.825 556.719C655.317 560.204 644 576.563 644 593.832C644 611.404 655.466 627.461 675.718 631.398Z" fill="url(#paint4_linear_21_148)"/>
<path d="M243.838 186.617C249.13 196.97 260.596 204 272.945 204C285.293 204 296.633 196.97 301.799 186.362C318.306 182.527 327 168.979 327 154.921C327 141.118 318.306 127.696 302.681 124.374C301.925 107.759 289.451 96 272.945 96C256.816 96 244.342 107.502 243.082 123.606C226.576 126.547 217 140.35 217 154.921C217 169.747 226.702 183.295 243.838 186.617Z" fill="url(#paint5_linear_21_148)"/>
<defs>
<linearGradient id="paint0_linear_21_148" x1="598" y1="210" x2="454" y2="362.5" gradientUnits="userSpaceOnUse">
<stop stop-color="#FFEBAD"/>
<stop offset="1" stop-color="#FFC029"/>
</linearGradient>
<linearGradient id="paint1_linear_21_148" x1="277" y1="606" x2="418.5" y2="585" gradientUnits="userSpaceOnUse">
<stop stop-color="#DB061B"/>
<stop offset="1" stop-color="#FF7784"/>
</linearGradient>
<linearGradient id="paint2_linear_21_148" x1="708.5" y1="625.5" x2="573.5" y2="609" gradientUnits="userSpaceOnUse">
<stop stop-color="#DB061B"/>
<stop offset="1" stop-color="#FF7784"/>
</linearGradient>
<linearGradient id="paint3_linear_21_148" x1="753" y1="235.5" x2="880.5" y2="108" gradientUnits="userSpaceOnUse">
<stop stop-color="#FFC029"/>
<stop offset="1" stop-color="#FFEBAD"/>
</linearGradient>
<linearGradient id="paint4_linear_21_148" x1="689.5" y1="607.5" x2="747.5" y2="562.5" gradientUnits="userSpaceOnUse">
<stop stop-color="#FFC029"/>
<stop offset="1" stop-color="#FFEBAD"/>
</linearGradient>
<linearGradient id="paint5_linear_21_148" x1="255.5" y1="166.453" x2="304.472" y2="128.349" gradientUnits="userSpaceOnUse">
<stop stop-color="#FFC029"/>
<stop offset="1" stop-color="#FFEBAD"/>
</linearGradient>
</defs>
</svg>
